<svg xmlns="http://www.w3.org/2000/svg" viewBox="0 0 64 64" role="img" aria-label="러브버그 아이콘">
  <defs>
    <linearGradient id="bg" x1="0" y1="0" x2="1" y2="1">
      <stop offset="0%" stop-color="#fff7d6" />
      <stop offset="100%" stop-color="#ffe37b" />
    </linearGradient>
  </defs>
  <rect width="64" height="64" rx="16" fill="url(#bg)" />

  <g fill="none" stroke="#172033" stroke-linecap="round" stroke-linejoin="round">
    <path d="M19 19c4 3 8 5 13 5" stroke-width="3.2" />
    <path d="M45 19c-4 3-8 5-13 5" stroke-width="3.2" />
    <path d="M15 30c5-1 9 0 13 3" stroke-width="3.2" />
    <path d="M49 30c-5-1-9 0-13 3" stroke-width="3.2" />
    <path d="M29.5 21.5c-.7-2.8-2-5.1-4-7" stroke-width="3" />
    <path d="M34.5 21.5c.7-2.8 2-5.1 4-7" stroke-width="3" />
  </g>

  <ellipse cx="24" cy="32" rx="10" ry="12" fill="#ff6b6b" stroke="#172033" stroke-width="2.6" />
  <ellipse cx="40" cy="32" rx="10" ry="12" fill="#ff6b6b" stroke="#172033" stroke-width="2.6" />
  <ellipse cx="32" cy="39" rx="8.5" ry="13" fill="#23314f" stroke="#172033" stroke-width="2.8" />
  <circle cx="32" cy="28" r="6.5" fill="#23314f" stroke="#172033" stroke-width="2.8" />

  <circle cx="29.6" cy="26.8" r="1.2" fill="#ffffff" />
  <circle cx="34.4" cy="26.8" r="1.2" fill="#ffffff" />
  <path d="M29.6 30.2c1.4 1.4 3.4 1.4 4.8 0" fill="none" stroke="#ffffff" stroke-width="2.2" stroke-linecap="round" />
</svg>
